<?xml version="1.0" encoding="utf-8"?>
<!-- Generator: Adobe Illustrator 23.1.0, SVG Export Plug-In . SVG Version: 6.00 Build 0)  -->
<svg version="1.1" id="Layer_1" xmlns="http://www.w3.org/2000/svg" xmlns:xlink="http://www.w3.org/1999/xlink" x="0px" y="0px"
	 viewBox="0 0 200 200" style="enable-background:new 0 0 200 200;" xml:space="preserve">
<style type="text/css">
	.st0{fill:none;stroke:currentColor;stroke-width:6;stroke-linecap:round;stroke-miterlimit:10;}
	.st1{fill:none;stroke:currentColor;stroke-width:6;stroke-miterlimit:10;}
</style>
<g>
	<line class="st0" x1="81.8" y1="81.6" x2="116.8" y2="81.6"/>
	<line class="st0" x1="74.8" y1="99.6" x2="124.8" y2="99.6"/>
	<line class="st0" x1="81.8" y1="116.6" x2="116.8" y2="116.6"/>
	<g>
		<path class="st1" d="M144.8,170.6h-90c-2.8,0-5-2.2-5-5v-121c0-2.8,2.2-5,5-5h90c2.8,0,5,2.2,5,5v121
			C149.8,168.3,147.5,170.6,144.8,170.6z"/>
		<path class="st1" d="M121.8,39.6h-45c-2.8,0-5-2.2-5-5v-1c0-2.8,2.2-5,5-5h45c2.8,0,5,2.2,5,5v1C126.8,37.3,124.5,39.6,121.8,39.6
			z"/>
	</g>
</g>
<g>
</g>
<g>
</g>
<g>
</g>
<g>
</g>
<g>
</g>
<g>
</g>
<g>
</g>
<g>
</g>
<g>
</g>
<g>
</g>
<g>
</g>
</svg>
